<svg width="100%" viewBox="0 0 680 820" xmlns="http://www.w3.org/2000/svg">
<style>
  .stem      { stroke: #d4c9b8; stroke-width: 0.9; fill: none; }
  .leaf      { stroke: #c8bfaf; stroke-width: 0.6; fill: none; }
  .ctr       { fill: #ede8de; }
  .spoke     { stroke: #e8e0d2; stroke-width: 0.4; fill: none; }
  .seed      { fill: #f0ebe0; opacity: 0.9; }
  .pap       { stroke: #f5f0e6; stroke-width: 0.28; fill: none; }
  .fs        { stroke: #e0d8c8; stroke-width: 0.32; fill: none; }
  .fseed     { fill: #ede8de; opacity: 0.75; }
  .fpap      { stroke: #f0ebe0; stroke-width: 0.2; fill: none; }
  .fctr      { fill: #d8d0c0; }
</style>

<g transform="translate(195,755)">
  <path class="stem" d="M0,0 C-3,-70 5,-150 -2,-300 C-4,-340 0,-360 0,-380"/>
  <path class="leaf" d="M-3,-155 C-22,-168 -44,-160 -46,-142 C-38,-128 -14,-133 -3,-148" stroke-linecap="round" stroke-linejoin="round"/>
  <path class="leaf" d="M-2,-225 C-20,-240 -40,-233 -41,-217 C-34,-204 -12,-208 -2,-221" stroke-linecap="round" stroke-linejoin="round"/>
  <path class="leaf" d="M1,-190 C18,-202 37,-196 38,-180 C31,-168 11,-172 1,-185" stroke-linecap="round" stroke-linejoin="round"/>

  <circle class="ctr" cx="0" cy="-380" r="5" opacity="0.95"/>

  <g transform="translate(0,-380)">
    <g transform="rotate(0)">   <line class="spoke" x1="0" y1="-6" x2="0" y2="-48"/> <ellipse class="seed" cx="0" cy="-48" rx="1.8" ry="3.2"/> <line class="pap" x1="0" y1="-51" x2="0" y2="-60"/> <path class="pap" d="M-4,-58 Q0,-65 4,-58"/> <path class="pap" d="M-6,-61 Q0,-69 6,-61"/> <path class="pap" d="M-3,-63 Q0,-68 3,-63"/> </g>
    <g transform="rotate(16)">  <line class="spoke" x1="0" y1="-6" x2="0" y2="-48"/> <ellipse class="seed" cx="0" cy="-48" rx="1.8" ry="3.2"/> <line class="pap" x1="0" y1="-51" x2="0" y2="-60"/> <path class="pap" d="M-4,-58 Q0,-65 4,-58"/> <path class="pap" d="M-6,-61 Q0,-69 6,-61"/> <path class="pap" d="M-3,-63 Q0,-68 3,-63"/> </g>
    <g transform="rotate(32)">  <line class="spoke" x1="0" y1="-6" x2="0" y2="-48"/> <ellipse class="seed" cx="0" cy="-48" rx="1.8" ry="3.2"/> <line class="pap" x1="0" y1="-51" x2="0" y2="-60"/> <path class="pap" d="M-4,-58 Q0,-65 4,-58"/> <path class="pap" d="M-6,-61 Q0,-69 6,-61"/> <path class="pap" d="M-3,-63 Q0,-68 3,-63"/> </g>
    <g transform="rotate(48)">  <line class="spoke" x1="0" y1="-6" x2="0" y2="-48"/> <ellipse class="seed" cx="0" cy="-48" rx="1.8" ry="3.2"/> <line class="pap" x1="0" y1="-51" x2="0" y2="-60"/> <path class="pap" d="M-4,-58 Q0,-65 4,-58"/> <path class="pap" d="M-6,-61 Q0,-69 6,-61"/> <path class="pap" d="M-3,-63 Q0,-68 3,-63"/> </g>
    <g transform="rotate(64)">  <line class="spoke" x1="0" y1="-6" x2="0" y2="-48"/> <ellipse class="seed" cx="0" cy="-48" rx="1.8" ry="3.2"/> <line class="pap" x1="0" y1="-51" x2="0" y2="-60"/> <path class="pap" d="M-4,-58 Q0,-65 4,-58"/> <path class="pap" d="M-6,-61 Q0,-69 6,-61"/> <path class="pap" d="M-3,-63 Q0,-68 3,-63"/> </g>
    <g transform="rotate(80)">  <line class="spoke" x1="0" y1="-6" x2="0" y2="-48"/> <ellipse class="seed" cx="0" cy="-48" rx="1.8" ry="3.2"/> <line class="pap" x1="0" y1="-51" x2="0" y2="-60"/> <path class="pap" d="M-4,-58 Q0,-65 4,-58"/> <path class="pap" d="M-6,-61 Q0,-69 6,-61"/> <path class="pap" d="M-3,-63 Q0,-68 3,-63"/> </g>
    <g transform="rotate(96)">  <line class="spoke" x1="0" y1="-6" x2="0" y2="-48"/> <ellipse class="seed" cx="0" cy="-48" rx="1.8" ry="3.2"/> <line class="pap" x1="0" y1="-51" x2="0" y2="-60"/> <path class="pap" d="M-4,-58 Q0,-65 4,-58"/> <path class="pap" d="M-6,-61 Q0,-69 6,-61"/> <path class="pap" d="M-3,-63 Q0,-68 3,-63"/> </g>
    <g transform="rotate(112)"> <line class="spoke" x1="0" y1="-6" x2="0" y2="-48"/> <ellipse class="seed" cx="0" cy="-48" rx="1.8" ry="3.2"/> <line class="pap" x1="0" y1="-51" x2="0" y2="-60"/> <path class="pap" d="M-4,-58 Q0,-65 4,-58"/> <path class="pap" d="M-6,-61 Q0,-69 6,-61"/> <path class="pap" d="M-3,-63 Q0,-68 3,-63"/> </g>
    <g transform="rotate(128)"> <line class="spoke" x1="0" y1="-6" x2="0" y2="-48"/> <ellipse class="seed" cx="0" cy="-48" rx="1.8" ry="3.2"/> <line class="pap" x1="0" y1="-51" x2="0" y2="-60"/> <path class="pap" d="M-4,-58 Q0,-65 4,-58"/> <path class="pap" d="M-6,-61 Q0,-69 6,-61"/> <path class="pap" d="M-3,-63 Q0,-68 3,-63"/> </g>
    <g transform="rotate(144)"> <line class="spoke" x1="0" y1="-6" x2="0" y2="-48"/> <ellipse class="seed" cx="0" cy="-48" rx="1.8" ry="3.2"/> <line class="pap" x1="0" y1="-51" x2="0" y2="-60"/> <path class="pap" d="M-4,-58 Q0,-65 4,-58"/> <path class="pap" d="M-6,-61 Q0,-69 6,-61"/> <path class="pap" d="M-3,-63 Q0,-68 3,-63"/> </g>
    <g transform="rotate(160)"> <line class="spoke" x1="0" y1="-6" x2="0" y2="-48"/> <ellipse class="seed" cx="0" cy="-48" rx="1.8" ry="3.2"/> <line class="pap" x1="0" y1="-51" x2="0" y2="-60"/> <path class="pap" d="M-4,-58 Q0,-65 4,-58"/> <path class="pap" d="M-6,-61 Q0,-69 6,-61"/> <path class="pap" d="M-3,-63 Q0,-68 3,-63"/> </g>
    <g transform="rotate(176)"> <line class="spoke" x1="0" y1="-6" x2="0" y2="-48"/> <ellipse class="seed" cx="0" cy="-48" rx="1.8" ry="3.2"/> <line class="pap" x1="0" y1="-51" x2="0" y2="-60"/> <path class="pap" d="M-4,-58 Q0,-65 4,-58"/> <path class="pap" d="M-6,-61 Q0,-69 6,-61"/> <path class="pap" d="M-3,-63 Q0,-68 3,-63"/> </g>
    <g transform="rotate(192)"> <line class="spoke" x1="0" y1="-6" x2="0" y2="-48"/> <ellipse class="seed" cx="0" cy="-48" rx="1.8" ry="3.2"/> <line class="pap" x1="0" y1="-51" x2="0" y2="-60"/> <path class="pap" d="M-4,-58 Q0,-65 4,-58"/> <path class="pap" d="M-6,-61 Q0,-69 6,-61"/> <path class="pap" d="M-3,-63 Q0,-68 3,-63"/> </g>
    <g transform="rotate(208)"> <line class="spoke" x1="0" y1="-6" x2="0" y2="-48"/> <ellipse class="seed" cx="0" cy="-48" rx="1.8" ry="3.2"/> <line class="pap" x1="0" y1="-51" x2="0" y2="-60"/> <path class="pap" d="M-4,-58 Q0,-65 4,-58"/> <path class="pap" d="M-6,-61 Q0,-69 6,-61"/> <path class="pap" d="M-3,-63 Q0,-68 3,-63"/> </g>
    <g transform="rotate(224)"> <line class="spoke" x1="0" y1="-6" x2="0" y2="-48"/> <ellipse class="seed" cx="0" cy="-48" rx="1.8" ry="3.2"/> <line class="pap" x1="0" y1="-51" x2="0" y2="-60"/> <path class="pap" d="M-4,-58 Q0,-65 4,-58"/> <path class="pap" d="M-6,-61 Q0,-69 6,-61"/> <path class="pap" d="M-3,-63 Q0,-68 3,-63"/> </g>
    <g transform="rotate(240)"> <line class="spoke" x1="0" y1="-6" x2="0" y2="-48"/> <ellipse class="seed" cx="0" cy="-48" rx="1.8" ry="3.2"/> <line class="pap" x1="0" y1="-51" x2="0" y2="-60"/> <path class="pap" d="M-4,-58 Q0,-65 4,-58"/> <path class="pap" d="M-6,-61 Q0,-69 6,-61"/> <path class="pap" d="M-3,-63 Q0,-68 3,-63"/> </g>
    <g transform="rotate(256)"> <line class="spoke" x1="0" y1="-6" x2="0" y2="-48"/> <ellipse class="seed" cx="0" cy="-48" rx="1.8" ry="3.2"/> <line class="pap" x1="0" y1="-51" x2="0" y2="-60"/> <path class="pap" d="M-4,-58 Q0,-65 4,-58"/> <path class="pap" d="M-6,-61 Q0,-69 6,-61"/> <path class="pap" d="M-3,-63 Q0,-68 3,-63"/> </g>
    <g transform="rotate(272)"> <line class="spoke" x1="0" y1="-6" x2="0" y2="-48"/> <ellipse class="seed" cx="0" cy="-48" rx="1.8" ry="3.2"/> <line class="pap" x1="0" y1="-51" x2="0" y2="-60"/> <path class="pap" d="M-4,-58 Q0,-65 4,-58"/> <path class="pap" d="M-6,-61 Q0,-69 6,-61"/> <path class="pap" d="M-3,-63 Q0,-68 3,-63"/> </g>
    <g transform="rotate(288)"> <line class="spoke" x1="0" y1="-6" x2="0" y2="-48"/> <ellipse class="seed" cx="0" cy="-48" rx="1.8" ry="3.2"/> <line class="pap" x1="0" y1="-51" x2="0" y2="-60"/> <path class="pap" d="M-4,-58 Q0,-65 4,-58"/> <path class="pap" d="M-6,-61 Q0,-69 6,-61"/> <path class="pap" d="M-3,-63 Q0,-68 3,-63"/> </g>
    <g transform="rotate(304)"> <line class="spoke" x1="0" y1="-6" x2="0" y2="-48"/> <ellipse class="seed" cx="0" cy="-48" rx="1.8" ry="3.2"/> <line class="pap" x1="0" y1="-51" x2="0" y2="-60"/> <path class="pap" d="M-4,-58 Q0,-65 4,-58"/> <path class="pap" d="M-6,-61 Q0,-69 6,-61"/> <path class="pap" d="M-3,-63 Q0,-68 3,-63"/> </g>
    <g transform="rotate(320)"> <line class="spoke" x1="0" y1="-6" x2="0" y2="-48"/> <ellipse class="seed" cx="0" cy="-48" rx="1.8" ry="3.2"/> <line class="pap" x1="0" y1="-51" x2="0" y2="-60"/> <path class="pap" d="M-4,-58 Q0,-65 4,-58"/> <path class="pap" d="M-6,-61 Q0,-69 6,-61"/> <path class="pap" d="M-3,-63 Q0,-68 3,-63"/> </g>
    <g transform="rotate(336)"> <line class="spoke" x1="0" y1="-6" x2="0" y2="-48"/> <ellipse class="seed" cx="0" cy="-48" rx="1.8" ry="3.2"/> <line class="pap" x1="0" y1="-51" x2="0" y2="-60"/> <path class="pap" d="M-4,-58 Q0,-65 4,-58"/> <path class="pap" d="M-6,-61 Q0,-69 6,-61"/> <path class="pap" d="M-3,-63 Q0,-68 3,-63"/> </g>
    <g transform="rotate(352)"> <line class="spoke" x1="0" y1="-6" x2="0" y2="-48"/> <ellipse class="seed" cx="0" cy="-48" rx="1.8" ry="3.2"/> <line class="pap" x1="0" y1="-51" x2="0" y2="-60"/> <path class="pap" d="M-4,-58 Q0,-65 4,-58"/> <path class="pap" d="M-6,-61 Q0,-69 6,-61"/> <path class="pap" d="M-3,-63 Q0,-68 3,-63"/> </g>
  </g>
</g>

<g transform="translate(305,560) rotate(-6)">
  <line class="fs" x1="0" y1="-4" x2="0" y2="-26"/> <ellipse class="fseed" cx="0" cy="-26" rx="1.4" ry="2.6"/> <line class="fpap" x1="0" y1="-29" x2="0" y2="-36"/> <path class="fpap" d="M-3.5,-34 Q0,-40 3.5,-34"/> <path class="fpap" d="M-5,-37 Q0,-44 5,-37"/>
  <g transform="rotate(36)">  <line class="fs" x1="0" y1="-4" x2="0" y2="-26"/> <ellipse class="fseed" cx="0" cy="-26" rx="1.4" ry="2.6"/> <line class="fpap" x1="0" y1="-29" x2="0" y2="-36"/> <path class="fpap" d="M-3.5,-34 Q0,-40 3.5,-34"/> <path class="fpap" d="M-5,-37 Q0,-44 5,-37"/> </g>
  <g transform="rotate(72)">  <line class="fs" x1="0" y1="-4" x2="0" y2="-26"/> <ellipse class="fseed" cx="0" cy="-26" rx="1.4" ry="2.6"/> <line class="fpap" x1="0" y1="-29" x2="0" y2="-36"/> <path class="fpap" d="M-3.5,-34 Q0,-40 3.5,-34"/> <path class="fpap" d="M-5,-37 Q0,-44 5,-37"/> </g>
  <g transform="rotate(108)"> <line class="fs" x1="0" y1="-4" x2="0" y2="-26"/> <ellipse class="fseed" cx="0" cy="-26" rx="1.4" ry="2.6"/> <line class="fpap" x1="0" y1="-29" x2="0" y2="-36"/> <path class="fpap" d="M-3.5,-34 Q0,-40 3.5,-34"/> <path class="fpap" d="M-5,-37 Q0,-44 5,-37"/> </g>
  <g transform="rotate(144)"> <line class="fs" x1="0" y1="-4" x2="0" y2="-26"/> <ellipse class="fseed" cx="0" cy="-26" rx="1.4" ry="2.6"/> <line class="fpap" x1="0" y1="-29" x2="0" y2="-36"/> <path class="fpap" d="M-3.5,-34 Q0,-40 3.5,-34"/> <path class="fpap" d="M-5,-37 Q0,-44 5,-37"/> </g>
  <g transform="rotate(180)"> <line class="fs" x1="0" y1="-4" x2="0" y2="-26"/> <ellipse class="fseed" cx="0" cy="-26" rx="1.4" ry="2.6"/> <line class="fpap" x1="0" y1="-29" x2="0" y2="-36"/> <path class="fpap" d="M-3.5,-34 Q0,-40 3.5,-34"/> <path class="fpap" d="M-5,-37 Q0,-44 5,-37"/> </g>
  <g transform="rotate(216)"> <line class="fs" x1="0" y1="-4" x2="0" y2="-26"/> <ellipse class="fseed" cx="0" cy="-26" rx="1.4" ry="2.6"/> <line class="fpap" x1="0" y1="-29" x2="0" y2="-36"/> <path class="fpap" d="M-3.5,-34 Q0,-40 3.5,-34"/> <path class="fpap" d="M-5,-37 Q0,-44 5,-37"/> </g>
  <g transform="rotate(252)"> <line class="fs" x1="0" y1="-4" x2="0" y2="-26"/> <ellipse class="fseed" cx="0" cy="-26" rx="1.4" ry="2.6"/> <line class="fpap" x1="0" y1="-29" x2="0" y2="-36"/> <path class="fpap" d="M-3.5,-34 Q0,-40 3.5,-34"/> <path class="fpap" d="M-5,-37 Q0,-44 5,-37"/> </g>
  <g transform="rotate(288)"> <line class="fs" x1="0" y1="-4" x2="0" y2="-26"/> <ellipse class="fseed" cx="0" cy="-26" rx="1.4" ry="2.6"/> <line class="fpap" x1="0" y1="-29" x2="0" y2="-36"/> <path class="fpap" d="M-3.5,-34 Q0,-40 3.5,-34"/> <path class="fpap" d="M-5,-37 Q0,-44 5,-37"/> </g>
  <g transform="rotate(324)"> <line class="fs" x1="0" y1="-4" x2="0" y2="-26"/> <ellipse class="fseed" cx="0" cy="-26" rx="1.4" ry="2.6"/> <line class="fpap" x1="0" y1="-29" x2="0" y2="-36"/> <path class="fpap" d="M-3.5,-34 Q0,-40 3.5,-34"/> <path class="fpap" d="M-5,-37 Q0,-44 5,-37"/> </g>
  <circle class="fctr" cx="0" cy="0" r="3.5" opacity="0.85"/>
</g>

<g transform="translate(415,430) rotate(10)">
  <line class="fs" x1="0" y1="-3" x2="0" y2="-20" stroke-width="0.28"/> <ellipse class="fseed" cx="0" cy="-20" rx="1.1" ry="2" opacity="0.7"/> <line class="fpap" x1="0" y1="-22" x2="0" y2="-28"/> <path class="fpap" d="M-2.8,-26 Q0,-31 2.8,-26"/> <path class="fpap" d="M-4,-28 Q0,-34 4,-28"/>
  <g transform="rotate(45)">  <line class="fs" x1="0" y1="-3" x2="0" y2="-20" stroke-width="0.28"/> <ellipse class="fseed" cx="0" cy="-20" rx="1.1" ry="2" opacity="0.7"/> <line class="fpap" x1="0" y1="-22" x2="0" y2="-28"/> <path class="fpap" d="M-2.8,-26 Q0,-31 2.8,-26"/> <path class="fpap" d="M-4,-28 Q0,-34 4,-28"/> </g>
  <g transform="rotate(90)">  <line class="fs" x1="0" y1="-3" x2="0" y2="-20" stroke-width="0.28"/> <ellipse class="fseed" cx="0" cy="-20" rx="1.1" ry="2" opacity="0.7"/> <line class="fpap" x1="0" y1="-22" x2="0" y2="-28"/> <path class="fpap" d="M-2.8,-26 Q0,-31 2.8,-26"/> <path class="fpap" d="M-4,-28 Q0,-34 4,-28"/> </g>
  <g transform="rotate(135)"> <line class="fs" x1="0" y1="-3" x2="0" y2="-20" stroke-width="0.28"/> <ellipse class="fseed" cx="0" cy="-20" rx="1.1" ry="2" opacity="0.7"/> <line class="fpap" x1="0" y1="-22" x2="0" y2="-28"/> <path class="fpap" d="M-2.8,-26 Q0,-31 2.8,-26"/> <path class="fpap" d="M-4,-28 Q0,-34 4,-28"/> </g>
  <g transform="rotate(180)"> <line class="fs" x1="0" y1="-3" x2="0" y2="-20" stroke-width="0.28"/> <ellipse class="fseed" cx="0" cy="-20" rx="1.1" ry="2" opacity="0.7"/> <line class="fpap" x1="0" y1="-22" x2="0" y2="-28"/> <path class="fpap" d="M-2.8,-26 Q0,-31 2.8,-26"/> <path class="fpap" d="M-4,-28 Q0,-34 4,-28"/> </g>
  <g transform="rotate(225)"> <line class="fs" x1="0" y1="-3" x2="0" y2="-20" stroke-width="0.28"/> <ellipse class="fseed" cx="0" cy="-20" rx="1.1" ry="2" opacity="0.7"/> <line class="fpap" x1="0" y1="-22" x2="0" y2="-28"/> <path class="fpap" d="M-2.8,-26 Q0,-31 2.8,-26"/> <path class="fpap" d="M-4,-28 Q0,-34 4,-28"/> </g>
  <g transform="rotate(270)"> <line class="fs" x1="0" y1="-3" x2="0" y2="-20" stroke-width="0.28"/> <ellipse class="fseed" cx="0" cy="-20" rx="1.1" ry="2" opacity="0.7"/> <line class="fpap" x1="0" y1="-22" x2="0" y2="-28"/> <path class="fpap" d="M-2.8,-26 Q0,-31 2.8,-26"/> <path class="fpap" d="M-4,-28 Q0,-34 4,-28"/> </g>
  <g transform="rotate(315)"> <line class="fs" x1="0" y1="-3" x2="0" y2="-20" stroke-width="0.28"/> <ellipse class="fseed" cx="0" cy="-20" rx="1.1" ry="2" opacity="0.7"/> <line class="fpap" x1="0" y1="-22" x2="0" y2="-28"/> <path class="fpap" d="M-2.8,-26 Q0,-31 2.8,-26"/> <path class="fpap" d="M-4,-28 Q0,-34 4,-28"/> </g>
  <circle class="fctr" cx="0" cy="0" r="2.8" opacity="0.75"/>
</g>

<g transform="translate(505,310) rotate(-12)">
  <line class="fs" x1="0" y1="-2" x2="0" y2="-15" stroke-width="0.22"/> <ellipse class="fseed" cx="0" cy="-15" rx="0.85" ry="1.6" opacity="0.55"/> <line class="fpap" x1="0" y1="-17" x2="0" y2="-22"/> <path class="fpap" d="M-2.2,-20 Q0,-24 2.2,-20"/> <path class="fpap" d="M-3,-22 Q0,-27 3,-22"/>
  <g transform="rotate(60)">  <line class="fs" x1="0" y1="-2" x2="0" y2="-15" stroke-width="0.22"/> <ellipse class="fseed" cx="0" cy="-15" rx="0.85" ry="1.6" opacity="0.55"/> <line class="fpap" x1="0" y1="-17" x2="0" y2="-22"/> <path class="fpap" d="M-2.2,-20 Q0,-24 2.2,-20"/> <path class="fpap" d="M-3,-22 Q0,-27 3,-22"/> </g>
  <g transform="rotate(120)"> <line class="fs" x1="0" y1="-2" x2="0" y2="-15" stroke-width="0.22"/> <ellipse class="fseed" cx="0" cy="-15" rx="0.85" ry="1.6" opacity="0.55"/> <line class="fpap" x1="0" y1="-17" x2="0" y2="-22"/> <path class="fpap" d="M-2.2,-20 Q0,-24 2.2,-20"/> <path class="fpap" d="M-3,-22 Q0,-27 3,-22"/> </g>
  <g transform="rotate(180)"> <line class="fs" x1="0" y1="-2" x2="0" y2="-15" stroke-width="0.22"/> <ellipse class="fseed" cx="0" cy="-15" rx="0.85" ry="1.6" opacity="0.55"/> <line class="fpap" x1="0" y1="-17" x2="0" y2="-22"/> <path class="fpap" d="M-2.2,-20 Q0,-24 2.2,-20"/> <path class="fpap" d="M-3,-22 Q0,-27 3,-22"/> </g>
  <g transform="rotate(240)"> <line class="fs" x1="0" y1="-2" x2="0" y2="-15" stroke-width="0.22"/> <ellipse class="fseed" cx="0" cy="-15" rx="0.85" ry="1.6" opacity="0.55"/> <line class="fpap" x1="0" y1="-17" x2="0" y2="-22"/> <path class="fpap" d="M-2.2,-20 Q0,-24 2.2,-20"/> <path class="fpap" d="M-3,-22 Q0,-27 3,-22"/> </g>
  <g transform="rotate(300)"> <line class="fs" x1="0" y1="-2" x2="0" y2="-15" stroke-width="0.22"/> <ellipse class="fseed" cx="0" cy="-15" rx="0.85" ry="1.6" opacity="0.55"/> <line class="fpap" x1="0" y1="-17" x2="0" y2="-22"/> <path class="fpap" d="M-2.2,-20 Q0,-24 2.2,-20"/> <path class="fpap" d="M-3,-22 Q0,-27 3,-22"/> </g>
  <circle class="fctr" cx="0" cy="0" r="2.2" opacity="0.6"/>
</g>

<g transform="translate(572,210) rotate(8)">
  <line class="fs" x1="0" y1="-2" x2="0" y2="-11" stroke-width="0.18"/> <ellipse class="fseed" cx="0" cy="-11" rx="0.65" ry="1.2" opacity="0.42"/> <line class="fpap" x1="0" y1="-13" x2="0" y2="-17"/> <path class="fpap" d="M-1.8,-15 Q0,-19 1.8,-15"/>
  <g transform="rotate(72)">  <line class="fs" x1="0" y1="-2" x2="0" y2="-11" stroke-width="0.18"/> <ellipse class="fseed" cx="0" cy="-11" rx="0.65" ry="1.2" opacity="0.42"/> <line class="fpap" x1="0" y1="-13" x2="0" y2="-17"/> <path class="fpap" d="M-1.8,-15 Q0,-19 1.8,-15"/> </g>
  <g transform="rotate(144)"> <line class="fs" x1="0" y1="-2" x2="0" y2="-11" stroke-width="0.18"/> <ellipse class="fseed" cx="0" cy="-11" rx="0.65" ry="1.2" opacity="0.42"/> <line class="fpap" x1="0" y1="-13" x2="0" y2="-17"/> <path class="fpap" d="M-1.8,-15 Q0,-19 1.8,-15"/> </g>
  <g transform="rotate(216)"> <line class="fs" x1="0" y1="-2" x2="0" y2="-11" stroke-width="0.18"/> <ellipse class="fseed" cx="0" cy="-11" rx="0.65" ry="1.2" opacity="0.42"/> <line class="fpap" x1="0" y1="-13" x2="0" y2="-17"/> <path class="fpap" d="M-1.8,-15 Q0,-19 1.8,-15"/> </g>
  <g transform="rotate(288)"> <line class="fs" x1="0" y1="-2" x2="0" y2="-11" stroke-width="0.18"/> <ellipse class="fseed" cx="0" cy="-11" rx="0.65" ry="1.2" opacity="0.42"/> <line class="fpap" x1="0" y1="-13" x2="0" y2="-17"/> <path class="fpap" d="M-1.8,-15 Q0,-19 1.8,-15"/> </g>
  <circle class="fctr" cx="0" cy="0" r="1.8" opacity="0.5"/>
</g>

<g transform="translate(622,128) rotate(-18)">
  <line class="fs" x1="0" y1="-1.5" x2="0" y2="-8" stroke-width="0.15"/> <ellipse class="fseed" cx="0" cy="-8" rx="0.5" ry="0.9" opacity="0.3"/> <line class="fpap" x1="0" y1="-9" x2="0" y2="-13"/> <path class="fpap" d="M-1.4,-11 Q0,-14 1.4,-11"/>
  <g transform="rotate(90)">  <line class="fs" x1="0" y1="-1.5" x2="0" y2="-8" stroke-width="0.15"/> <ellipse class="fseed" cx="0" cy="-8" rx="0.5" ry="0.9" opacity="0.3"/> <line class="fpap" x1="0" y1="-9" x2="0" y2="-13"/> <path class="fpap" d="M-1.4,-11 Q0,-14 1.4,-11"/> </g>
  <g transform="rotate(180)"> <line class="fs" x1="0" y1="-1.5" x2="0" y2="-8" stroke-width="0.15"/> <ellipse class="fseed" cx="0" cy="-8" rx="0.5" ry="0.9" opacity="0.3"/> <line class="fpap" x1="0" y1="-9" x2="0" y2="-13"/> <path class="fpap" d="M-1.4,-11 Q0,-14 1.4,-11"/> </g>
  <g transform="rotate(270)"> <line class="fs" x1="0" y1="-1.5" x2="0" y2="-8" stroke-width="0.15"/> <ellipse class="fseed" cx="0" cy="-8" rx="0.5" ry="0.9" opacity="0.3"/> <line class="fpap" x1="0" y1="-9" x2="0" y2="-13"/> <path class="fpap" d="M-1.4,-11 Q0,-14 1.4,-11"/> </g>
  <circle class="fctr" cx="0" cy="0" r="1.3" opacity="0.38"/>
</g>

</svg>
